<mxfile host="app.diagrams.net" modified="2023-10-16T21:06:18.457Z" agent="Mozilla/5.0 (Windows NT 10.0; Win64; x64) AppleWebKit/537.36 (KHTML, like Gecko) Chrome/118.0.0.0 Safari/537.36" etag="6r9WyuxaDc-9U1yGY-rt" version="22.0.4" type="github">
  <diagram name="PÃ¡gina-1" id="5L7kiTQ-uQX26gXQHLJ3">
    <mxGraphModel dx="2294" dy="1966" grid="1" gridSize="10" guides="1" tooltips="1" connect="1" arrows="1" fold="1" page="1" pageScale="1" pageWidth="827" pageHeight="1169" math="0" shadow="0">
      <root>
        <mxCell id="0" />
        <mxCell id="1" parent="0" />
        <mxCell id="Yb3QKmwWysDypuXjhSpj-1" value="" style="verticalLabelPosition=bottom;verticalAlign=top;html=1;shape=card;whiteSpace=wrap;size=20;arcSize=12;fillColor=#e1d5e7;strokeColor=#9673a6;" parent="1" vertex="1">
          <mxGeometry x="-232.5" y="-440" width="265" height="1080" as="geometry" />
        </mxCell>
        <mxCell id="Yb3QKmwWysDypuXjhSpj-2" style="edgeStyle=orthogonalEdgeStyle;rounded=0;orthogonalLoop=1;jettySize=auto;html=1;exitX=0.5;exitY=1;exitDx=0;exitDy=0;exitPerimeter=0;fillColor=#a20025;strokeColor=#6F0000;" parent="1" source="Yb3QKmwWysDypuXjhSpj-3" target="Yb3QKmwWysDypuXjhSpj-7" edge="1">
          <mxGeometry relative="1" as="geometry" />
        </mxCell>
        <mxCell id="Yb3QKmwWysDypuXjhSpj-3" value="&lt;font style=&quot;font-size: 20px;&quot;&gt;Inicio&lt;/font&gt;" style="strokeWidth=2;html=1;shape=mxgraph.flowchart.start_1;whiteSpace=wrap;fillColor=#f8cecc;strokeColor=#b85450;" parent="1" vertex="1">
          <mxGeometry x="160" y="-450" width="100" height="60" as="geometry" />
        </mxCell>
        <mxCell id="Yb3QKmwWysDypuXjhSpj-4" value="&lt;font style=&quot;font-size: 20px;&quot;&gt;Fin&lt;/font&gt;" style="strokeWidth=2;html=1;shape=mxgraph.flowchart.terminator;whiteSpace=wrap;fillColor=#f8cecc;strokeColor=#b85450;" parent="1" vertex="1">
          <mxGeometry x="165" y="110" width="100" height="60" as="geometry" />
        </mxCell>
        <mxCell id="Yb3QKmwWysDypuXjhSpj-6" style="edgeStyle=orthogonalEdgeStyle;rounded=0;orthogonalLoop=1;jettySize=auto;html=1;exitX=0.5;exitY=1;exitDx=0;exitDy=0;" parent="1" source="Yb3QKmwWysDypuXjhSpj-7" target="Yb3QKmwWysDypuXjhSpj-25" edge="1">
          <mxGeometry relative="1" as="geometry" />
        </mxCell>
        <mxCell id="Yb3QKmwWysDypuXjhSpj-41" style="edgeStyle=orthogonalEdgeStyle;rounded=0;orthogonalLoop=1;jettySize=auto;html=1;exitX=0;exitY=0.5;exitDx=0;exitDy=0;entryX=0.5;entryY=0;entryDx=0;entryDy=0;" parent="1" source="Yb3QKmwWysDypuXjhSpj-7" target="Yb3QKmwWysDypuXjhSpj-31" edge="1">
          <mxGeometry relative="1" as="geometry">
            <Array as="points">
              <mxPoint x="120" y="-330" />
              <mxPoint x="120" y="-190" />
              <mxPoint x="215" y="-190" />
            </Array>
          </mxGeometry>
        </mxCell>
        <mxCell id="Yb3QKmwWysDypuXjhSpj-7" value="&lt;font style=&quot;font-size: 16px;&quot;&gt;3&lt;/font&gt;" style="verticalLabelPosition=middle;verticalAlign=middle;html=1;shape=hexagon;perimeter=hexagonPerimeter2;arcSize=6;size=0.27;labelPosition=center;align=center;fillColor=#dae8fc;strokeColor=#6c8ebf;" parent="1" vertex="1">
          <mxGeometry x="140" y="-370" width="140" height="80" as="geometry" />
        </mxCell>
        <mxCell id="Yb3QKmwWysDypuXjhSpj-8" style="edgeStyle=orthogonalEdgeStyle;rounded=0;orthogonalLoop=1;jettySize=auto;html=1;fillColor=#008a00;strokeColor=#005700;" parent="1" source="Yb3QKmwWysDypuXjhSpj-9" target="Yb3QKmwWysDypuXjhSpj-11" edge="1">
          <mxGeometry relative="1" as="geometry" />
        </mxCell>
        <mxCell id="Yb3QKmwWysDypuXjhSpj-9" value="3" style="verticalLabelPosition=middle;verticalAlign=middle;html=1;shape=hexagon;perimeter=hexagonPerimeter2;arcSize=6;size=0.27;labelPosition=center;align=center;fillColor=#d5e8d4;strokeColor=#82b366;fontSize=16;" parent="1" vertex="1">
          <mxGeometry x="-180" y="-350" width="140" height="80" as="geometry" />
        </mxCell>
        <mxCell id="Yb3QKmwWysDypuXjhSpj-10" style="edgeStyle=orthogonalEdgeStyle;rounded=0;orthogonalLoop=1;jettySize=auto;html=1;exitX=0.5;exitY=1;exitDx=0;exitDy=0;entryX=1;entryY=0.5;entryDx=0;entryDy=0;fillColor=#008a00;strokeColor=#005700;" parent="1" source="Yb3QKmwWysDypuXjhSpj-11" target="Yb3QKmwWysDypuXjhSpj-9" edge="1">
          <mxGeometry relative="1" as="geometry">
            <Array as="points">
              <mxPoint x="-110" y="-190" />
              <mxPoint x="-20" y="-190" />
              <mxPoint x="-20" y="-310" />
            </Array>
          </mxGeometry>
        </mxCell>
        <mxCell id="Yb3QKmwWysDypuXjhSpj-11" value="turnleft();" style="rounded=1;whiteSpace=wrap;html=1;absoluteArcSize=1;arcSize=14;strokeWidth=2;fillColor=#d5e8d4;strokeColor=#82b366;fontSize=12;" parent="1" vertex="1">
          <mxGeometry x="-160" y="-240" width="100" height="30" as="geometry" />
        </mxCell>
        <mxCell id="Yb3QKmwWysDypuXjhSpj-12" style="edgeStyle=orthogonalEdgeStyle;rounded=0;orthogonalLoop=1;jettySize=auto;html=1;fillColor=#6a00ff;strokeColor=#3700CC;" parent="1" source="Yb3QKmwWysDypuXjhSpj-13" target="Yb3QKmwWysDypuXjhSpj-15" edge="1">
          <mxGeometry relative="1" as="geometry">
            <Array as="points">
              <mxPoint x="-100" y="110" />
              <mxPoint x="-100" y="110" />
            </Array>
          </mxGeometry>
        </mxCell>
        <mxCell id="Yb3QKmwWysDypuXjhSpj-13" value="n" style="verticalLabelPosition=middle;verticalAlign=middle;html=1;shape=hexagon;perimeter=hexagonPerimeter2;arcSize=6;size=0.27;labelPosition=center;align=center;fillColor=#e1d5e7;strokeColor=#9673a6;fontSize=16;" parent="1" vertex="1">
          <mxGeometry x="-170" y="20" width="140" height="80" as="geometry" />
        </mxCell>
        <mxCell id="Yb3QKmwWysDypuXjhSpj-50" style="edgeStyle=orthogonalEdgeStyle;rounded=0;orthogonalLoop=1;jettySize=auto;html=1;exitX=0.5;exitY=1;exitDx=0;exitDy=0;" parent="1" source="Yb3QKmwWysDypuXjhSpj-15" target="Yb3QKmwWysDypuXjhSpj-48" edge="1">
          <mxGeometry relative="1" as="geometry" />
        </mxCell>
        <mxCell id="Yb3QKmwWysDypuXjhSpj-15" value="pickbeeper();" style="rounded=1;whiteSpace=wrap;html=1;absoluteArcSize=1;arcSize=14;strokeWidth=2;fillColor=#e1d5e7;strokeColor=#9673a6;" parent="1" vertex="1">
          <mxGeometry x="-150" y="130" width="100" height="30" as="geometry" />
        </mxCell>
        <mxCell id="Yb3QKmwWysDypuXjhSpj-16" style="edgeStyle=orthogonalEdgeStyle;rounded=0;orthogonalLoop=1;jettySize=auto;html=1;exitX=0.5;exitY=1;exitDx=0;exitDy=0;exitPerimeter=0;fillColor=#a20025;strokeColor=#6F0000;" parent="1" source="Yb3QKmwWysDypuXjhSpj-17" edge="1">
          <mxGeometry relative="1" as="geometry">
            <mxPoint x="-110" y="-350" as="targetPoint" />
          </mxGeometry>
        </mxCell>
        <mxCell id="Yb3QKmwWysDypuXjhSpj-17" value="&lt;font style=&quot;font-size: 20px;&quot;&gt;Inicio(giro)&lt;/font&gt;" style="strokeWidth=2;html=1;shape=mxgraph.flowchart.start_1;whiteSpace=wrap;fillColor=#f8cecc;strokeColor=#b85450;" parent="1" vertex="1">
          <mxGeometry x="-160" y="-430" width="100" height="60" as="geometry" />
        </mxCell>
        <mxCell id="Yb3QKmwWysDypuXjhSpj-18" value="&lt;font style=&quot;font-size: 20px;&quot;&gt;Fin&lt;/font&gt;" style="strokeWidth=2;html=1;shape=mxgraph.flowchart.terminator;whiteSpace=wrap;fillColor=#f8cecc;strokeColor=#b85450;" parent="1" vertex="1">
          <mxGeometry x="-160" y="-170" width="100" height="60" as="geometry" />
        </mxCell>
        <mxCell id="Yb3QKmwWysDypuXjhSpj-20" style="edgeStyle=orthogonalEdgeStyle;rounded=0;orthogonalLoop=1;jettySize=auto;html=1;exitX=0.5;exitY=1;exitDx=0;exitDy=0;exitPerimeter=0;" parent="1" source="Yb3QKmwWysDypuXjhSpj-21" target="Yb3QKmwWysDypuXjhSpj-13" edge="1">
          <mxGeometry relative="1" as="geometry" />
        </mxCell>
        <mxCell id="Yb3QKmwWysDypuXjhSpj-21" value="&lt;font style=&quot;font-size: 20px;&quot;&gt;Inicio(avanza(n))&lt;/font&gt;" style="strokeWidth=2;html=1;shape=mxgraph.flowchart.start_1;whiteSpace=wrap;fillColor=#f8cecc;strokeColor=#b85450;" parent="1" vertex="1">
          <mxGeometry x="-180" y="-80" width="160" height="80" as="geometry" />
        </mxCell>
        <mxCell id="Yb3QKmwWysDypuXjhSpj-22" value="&lt;font style=&quot;font-size: 20px;&quot;&gt;Fin&lt;/font&gt;" style="strokeWidth=2;html=1;shape=mxgraph.flowchart.terminator;whiteSpace=wrap;fillColor=#f8cecc;strokeColor=#b85450;" parent="1" vertex="1">
          <mxGeometry x="-150" y="250" width="100" height="60" as="geometry" />
        </mxCell>
        <mxCell id="Yb3QKmwWysDypuXjhSpj-34" style="edgeStyle=orthogonalEdgeStyle;rounded=0;orthogonalLoop=1;jettySize=auto;html=1;exitX=0.5;exitY=1;exitDx=0;exitDy=0;entryX=1;entryY=0.5;entryDx=0;entryDy=0;" parent="1" source="Yb3QKmwWysDypuXjhSpj-25" target="Yb3QKmwWysDypuXjhSpj-7" edge="1">
          <mxGeometry relative="1" as="geometry">
            <Array as="points">
              <mxPoint x="210" y="-200" />
              <mxPoint x="300" y="-200" />
              <mxPoint x="300" y="-330" />
            </Array>
          </mxGeometry>
        </mxCell>
        <mxCell id="Yb3QKmwWysDypuXjhSpj-25" value="&lt;span style=&quot;color: rgb(0, 0, 0); font-family: Helvetica; font-size: 20px; font-style: normal; font-variant-ligatures: normal; font-variant-caps: normal; font-weight: 400; letter-spacing: normal; orphans: 2; text-align: center; text-indent: 0px; text-transform: none; widows: 2; word-spacing: 0px; -webkit-text-stroke-width: 0px; background-color: rgb(251, 251, 251); text-decoration-thickness: initial; text-decoration-style: initial; text-decoration-color: initial; float: none; display: inline !important;&quot;&gt;si(3)&lt;/span&gt;" style="verticalLabelPosition=middle;verticalAlign=middle;html=1;shape=process;whiteSpace=wrap;rounded=1;size=0.14;arcSize=50;labelPosition=center;align=center;" parent="1" vertex="1">
          <mxGeometry x="135" y="-260" width="150" height="40" as="geometry" />
        </mxCell>
        <mxCell id="Yb3QKmwWysDypuXjhSpj-42" style="edgeStyle=orthogonalEdgeStyle;rounded=0;orthogonalLoop=1;jettySize=auto;html=1;exitX=0.5;exitY=1;exitDx=0;exitDy=0;entryX=0.5;entryY=0;entryDx=0;entryDy=0;" parent="1" source="Yb3QKmwWysDypuXjhSpj-31" target="Yb3QKmwWysDypuXjhSpj-32" edge="1">
          <mxGeometry relative="1" as="geometry" />
        </mxCell>
        <mxCell id="Yb3QKmwWysDypuXjhSpj-31" value="&lt;span style=&quot;color: rgb(0, 0, 0); font-family: Helvetica; font-size: 20px; font-style: normal; font-variant-ligatures: normal; font-variant-caps: normal; font-weight: 400; letter-spacing: normal; orphans: 2; text-align: center; text-indent: 0px; text-transform: none; widows: 2; word-spacing: 0px; -webkit-text-stroke-width: 0px; background-color: rgb(251, 251, 251); text-decoration-thickness: initial; text-decoration-style: initial; text-decoration-color: initial; float: none; display: inline !important;&quot;&gt;si(2)&lt;/span&gt;" style="verticalLabelPosition=middle;verticalAlign=middle;html=1;shape=process;whiteSpace=wrap;rounded=1;size=0.14;arcSize=50;labelPosition=center;align=center;" parent="1" vertex="1">
          <mxGeometry x="140" y="-180" width="150" height="40" as="geometry" />
        </mxCell>
        <mxCell id="Yb3QKmwWysDypuXjhSpj-43" style="edgeStyle=orthogonalEdgeStyle;rounded=0;orthogonalLoop=1;jettySize=auto;html=1;exitX=0.5;exitY=1;exitDx=0;exitDy=0;entryX=0.5;entryY=0;entryDx=0;entryDy=0;" parent="1" source="Yb3QKmwWysDypuXjhSpj-32" target="Yb3QKmwWysDypuXjhSpj-33" edge="1">
          <mxGeometry relative="1" as="geometry" />
        </mxCell>
        <mxCell id="Yb3QKmwWysDypuXjhSpj-32" value="&lt;span style=&quot;color: rgb(0, 0, 0); font-family: Helvetica; font-size: 20px; font-style: normal; font-variant-ligatures: normal; font-variant-caps: normal; font-weight: 400; letter-spacing: normal; orphans: 2; text-align: center; text-indent: 0px; text-transform: none; widows: 2; word-spacing: 0px; -webkit-text-stroke-width: 0px; background-color: rgb(251, 251, 251); text-decoration-thickness: initial; text-decoration-style: initial; text-decoration-color: initial; float: none; display: inline !important;&quot;&gt;si(2)&lt;/span&gt;" style="verticalLabelPosition=middle;verticalAlign=middle;html=1;shape=process;whiteSpace=wrap;rounded=1;size=0.14;arcSize=50;labelPosition=center;align=center;" parent="1" vertex="1">
          <mxGeometry x="140" y="-120" width="150" height="40" as="geometry" />
        </mxCell>
        <mxCell id="Yb3QKmwWysDypuXjhSpj-44" style="edgeStyle=orthogonalEdgeStyle;rounded=0;orthogonalLoop=1;jettySize=auto;html=1;exitX=0.5;exitY=1;exitDx=0;exitDy=0;entryX=0.5;entryY=0;entryDx=0;entryDy=0;" parent="1" source="Yb3QKmwWysDypuXjhSpj-33" target="Yb3QKmwWysDypuXjhSpj-36" edge="1">
          <mxGeometry relative="1" as="geometry" />
        </mxCell>
        <mxCell id="Yb3QKmwWysDypuXjhSpj-33" value="&lt;span style=&quot;color: rgb(0, 0, 0); font-family: Helvetica; font-size: 20px; font-style: normal; font-variant-ligatures: normal; font-variant-caps: normal; font-weight: 400; letter-spacing: normal; orphans: 2; text-align: center; text-indent: 0px; text-transform: none; widows: 2; word-spacing: 0px; -webkit-text-stroke-width: 0px; background-color: rgb(251, 251, 251); text-decoration-thickness: initial; text-decoration-style: initial; text-decoration-color: initial; float: none; display: inline !important;&quot;&gt;si(1)&lt;/span&gt;" style="verticalLabelPosition=middle;verticalAlign=middle;html=1;shape=process;whiteSpace=wrap;rounded=1;size=0.14;arcSize=50;labelPosition=center;align=center;" parent="1" vertex="1">
          <mxGeometry x="140" y="-60" width="150" height="40" as="geometry" />
        </mxCell>
        <mxCell id="Yb3QKmwWysDypuXjhSpj-46" style="edgeStyle=orthogonalEdgeStyle;rounded=0;orthogonalLoop=1;jettySize=auto;html=1;exitX=0.5;exitY=1;exitDx=0;exitDy=0;" parent="1" source="Yb3QKmwWysDypuXjhSpj-36" target="Yb3QKmwWysDypuXjhSpj-45" edge="1">
          <mxGeometry relative="1" as="geometry" />
        </mxCell>
        <mxCell id="Yb3QKmwWysDypuXjhSpj-36" value="&lt;span style=&quot;color: rgb(0, 0, 0); font-family: Helvetica; font-size: 20px; font-style: normal; font-variant-ligatures: normal; font-variant-caps: normal; font-weight: 400; letter-spacing: normal; orphans: 2; text-align: center; text-indent: 0px; text-transform: none; widows: 2; word-spacing: 0px; -webkit-text-stroke-width: 0px; background-color: rgb(251, 251, 251); text-decoration-thickness: initial; text-decoration-style: initial; text-decoration-color: initial; float: none; display: inline !important;&quot;&gt;si(1)&lt;/span&gt;" style="verticalLabelPosition=middle;verticalAlign=middle;html=1;shape=process;whiteSpace=wrap;rounded=1;size=0.14;arcSize=50;labelPosition=center;align=center;" parent="1" vertex="1">
          <mxGeometry x="140" width="150" height="40" as="geometry" />
        </mxCell>
        <mxCell id="Yb3QKmwWysDypuXjhSpj-47" style="edgeStyle=orthogonalEdgeStyle;rounded=0;orthogonalLoop=1;jettySize=auto;html=1;exitX=0.5;exitY=1;exitDx=0;exitDy=0;" parent="1" source="Yb3QKmwWysDypuXjhSpj-45" target="Yb3QKmwWysDypuXjhSpj-4" edge="1">
          <mxGeometry relative="1" as="geometry" />
        </mxCell>
        <mxCell id="Yb3QKmwWysDypuXjhSpj-45" value="pickbeeper();" style="rounded=1;whiteSpace=wrap;html=1;absoluteArcSize=1;arcSize=14;strokeWidth=2;" parent="1" vertex="1">
          <mxGeometry x="165" y="60" width="100" height="30" as="geometry" />
        </mxCell>
        <mxCell id="Yb3QKmwWysDypuXjhSpj-51" style="edgeStyle=orthogonalEdgeStyle;rounded=0;orthogonalLoop=1;jettySize=auto;html=1;exitX=0.5;exitY=1;exitDx=0;exitDy=0;entryX=1;entryY=0.5;entryDx=0;entryDy=0;" parent="1" source="Yb3QKmwWysDypuXjhSpj-48" target="Yb3QKmwWysDypuXjhSpj-13" edge="1">
          <mxGeometry relative="1" as="geometry">
            <Array as="points">
              <mxPoint x="-100" y="230" />
              <mxPoint x="-10" y="230" />
              <mxPoint x="-10" y="60" />
            </Array>
          </mxGeometry>
        </mxCell>
        <mxCell id="Yb3QKmwWysDypuXjhSpj-48" value="move();" style="rounded=1;whiteSpace=wrap;html=1;absoluteArcSize=1;arcSize=14;strokeWidth=2;fillColor=#e1d5e7;strokeColor=#9673a6;" parent="1" vertex="1">
          <mxGeometry x="-150" y="180" width="100" height="30" as="geometry" />
        </mxCell>
        <mxCell id="Yb3QKmwWysDypuXjhSpj-49" style="edgeStyle=orthogonalEdgeStyle;rounded=0;orthogonalLoop=1;jettySize=auto;html=1;exitX=0;exitY=0.5;exitDx=0;exitDy=0;entryX=0.5;entryY=0;entryDx=0;entryDy=0;entryPerimeter=0;" parent="1" source="Yb3QKmwWysDypuXjhSpj-9" target="Yb3QKmwWysDypuXjhSpj-18" edge="1">
          <mxGeometry relative="1" as="geometry">
            <Array as="points">
              <mxPoint x="-200" y="-310" />
              <mxPoint x="-200" y="-180" />
              <mxPoint x="-110" y="-180" />
            </Array>
          </mxGeometry>
        </mxCell>
        <mxCell id="Yb3QKmwWysDypuXjhSpj-52" style="edgeStyle=orthogonalEdgeStyle;rounded=0;orthogonalLoop=1;jettySize=auto;html=1;exitX=0;exitY=0.5;exitDx=0;exitDy=0;entryX=0.5;entryY=0;entryDx=0;entryDy=0;entryPerimeter=0;" parent="1" source="Yb3QKmwWysDypuXjhSpj-13" target="Yb3QKmwWysDypuXjhSpj-22" edge="1">
          <mxGeometry relative="1" as="geometry">
            <Array as="points">
              <mxPoint x="-190" y="60" />
              <mxPoint x="-190" y="240" />
              <mxPoint x="-100" y="240" />
            </Array>
          </mxGeometry>
        </mxCell>
        <mxCell id="Yb3QKmwWysDypuXjhSpj-57" style="edgeStyle=orthogonalEdgeStyle;rounded=0;orthogonalLoop=1;jettySize=auto;html=1;exitX=0.5;exitY=1;exitDx=0;exitDy=0;exitPerimeter=0;" parent="1" source="Yb3QKmwWysDypuXjhSpj-58" edge="1">
          <mxGeometry relative="1" as="geometry">
            <mxPoint x="-100" y="430" as="targetPoint" />
          </mxGeometry>
        </mxCell>
        <mxCell id="Yb3QKmwWysDypuXjhSpj-58" value="&lt;font style=&quot;font-size: 20px;&quot;&gt;Inicio(si(n))&lt;/font&gt;" style="strokeWidth=2;html=1;shape=mxgraph.flowchart.start_1;whiteSpace=wrap;fillColor=#f8cecc;strokeColor=#b85450;" parent="1" vertex="1">
          <mxGeometry x="-180" y="330" width="160" height="80" as="geometry" />
        </mxCell>
        <mxCell id="Yb3QKmwWysDypuXjhSpj-59" value="&lt;font style=&quot;font-size: 20px;&quot;&gt;Fin&lt;/font&gt;" style="strokeWidth=2;html=1;shape=mxgraph.flowchart.terminator;whiteSpace=wrap;fillColor=#f8cecc;strokeColor=#b85450;" parent="1" vertex="1">
          <mxGeometry x="-147.5" y="554.5" width="100" height="60" as="geometry" />
        </mxCell>
        <mxCell id="Yb3QKmwWysDypuXjhSpj-68" style="edgeStyle=orthogonalEdgeStyle;rounded=0;orthogonalLoop=1;jettySize=auto;html=1;exitX=0.5;exitY=1;exitDx=0;exitDy=0;entryX=0.5;entryY=0;entryDx=0;entryDy=0;" parent="1" source="Yb3QKmwWysDypuXjhSpj-64" target="Yb3QKmwWysDypuXjhSpj-65" edge="1">
          <mxGeometry relative="1" as="geometry" />
        </mxCell>
        <mxCell id="Yb3QKmwWysDypuXjhSpj-64" value="&lt;span style=&quot;color: rgb(0, 0, 0); font-family: Helvetica; font-size: 20px; font-style: normal; font-variant-ligatures: normal; font-variant-caps: normal; font-weight: 400; letter-spacing: normal; orphans: 2; text-align: center; text-indent: 0px; text-transform: none; widows: 2; word-spacing: 0px; -webkit-text-stroke-width: 0px; background-color: rgb(251, 251, 251); text-decoration-thickness: initial; text-decoration-style: initial; text-decoration-color: initial; float: none; display: inline !important;&quot;&gt;avanza(n)&lt;/span&gt;" style="verticalLabelPosition=middle;verticalAlign=middle;html=1;shape=process;whiteSpace=wrap;rounded=1;size=0.14;arcSize=50;labelPosition=center;align=center;" parent="1" vertex="1">
          <mxGeometry x="-175" y="430" width="150" height="40" as="geometry" />
        </mxCell>
        <mxCell id="Yb3QKmwWysDypuXjhSpj-69" style="edgeStyle=orthogonalEdgeStyle;rounded=0;orthogonalLoop=1;jettySize=auto;html=1;exitX=0.5;exitY=1;exitDx=0;exitDy=0;" parent="1" source="Yb3QKmwWysDypuXjhSpj-65" target="Yb3QKmwWysDypuXjhSpj-59" edge="1">
          <mxGeometry relative="1" as="geometry" />
        </mxCell>
        <mxCell id="Yb3QKmwWysDypuXjhSpj-65" value="&lt;span style=&quot;color: rgb(0, 0, 0); font-family: Helvetica; font-size: 20px; font-style: normal; font-variant-ligatures: normal; font-variant-caps: normal; font-weight: 400; letter-spacing: normal; orphans: 2; text-align: center; text-indent: 0px; text-transform: none; widows: 2; word-spacing: 0px; -webkit-text-stroke-width: 0px; background-color: rgb(251, 251, 251); text-decoration-thickness: initial; text-decoration-style: initial; text-decoration-color: initial; float: none; display: inline !important;&quot;&gt;giro()&lt;/span&gt;" style="verticalLabelPosition=middle;verticalAlign=middle;html=1;shape=process;whiteSpace=wrap;rounded=1;size=0.14;arcSize=50;labelPosition=center;align=center;" parent="1" vertex="1">
          <mxGeometry x="-172.5" y="490" width="150" height="40" as="geometry" />
        </mxCell>
      </root>
    </mxGraphModel>
  </diagram>
</mxfile>
